<?xml version="1.0" encoding="UTF-8"?>
<svg version="1.1" xmlns="http://www.w3.org/2000/svg" width="512" height="512">
<path d="M0 0 C7.06962855 5.81533962 11.00973029 11.75332998 11.97265625 20.89453125 C12.26531767 29.99248396 10.06668836 36.85559258 4.6875 44.1875 C2.70283272 46.28155029 0.59056414 48.20613428 -1.5625 50.125 C-2.14314209 50.65295166 -2.72378418 51.18090332 -3.32202148 51.72485352 C-6.29289261 54.41672685 -9.30836755 57.04257268 -12.375 59.625 C-47.89875128 90.59633778 -68.12288988 138.93728825 -71.9375 185.125 C-75.25437403 239.52173408 -56.82263546 289.23532352 -21.15625 329.99609375 C11.65396003 367.03743575 60.78202278 388.20741655 109.6875 391.1875 C164.30298968 394.07679206 213.5662817 373.17158015 253.6875 337.1875 C289.47909335 304.31402325 309.45623951 254.88849615 311.796875 206.94726562 C312.46199575 188.10772037 310.23639487 169.45477834 305.6875 151.1875 C305.42694824 150.12934082 305.42694824 150.12934082 305.16113281 149.04980469 C295.8881649 112.38644358 273.7475417 76.40161072 244.125 52.6875 C235.46414115 45.67004512 228.78061844 38.70706228 227.30859375 27.234375 C226.94932074 18.19460258 229.19622638 10.97832479 234.8125 3.875 C240.03357731 -1.69565268 247.32350201 -5.33075925 254.94921875 -6.015625 C271.73998227 -6.3400842 282.5626904 4.5790151 294.01269531 15.57128906 C294.84172363 16.37131348 294.84172363 16.37131348 295.6875 17.1875 C296.52812988 17.99525879 296.52812988 17.99525879 297.38574219 18.81933594 C304.6974256 25.87903715 311.46876244 33.12852377 317.6875 41.1875 C318.13416016 41.75243164 318.58082031 42.31736328 319.04101562 42.89941406 C348.95793281 80.77123548 366.43759686 126.38884917 371.6875 174.1875 C371.82027344 175.39277344 371.95304687 176.59804687 372.08984375 177.83984375 C377.31095024 236.84549924 360.83126503 296.92744969 326.6875 345.1875 C326.01146729 346.14970459 326.01146729 346.14970459 325.32177734 347.13134766 C317.62544992 357.99722348 308.98002888 367.66958778 299.6875 377.1875 C298.68336405 378.23154996 297.67944071 379.27580447 296.67578125 380.3203125 C290.70146453 386.43951279 284.41266363 391.91268073 277.6875 397.1875 C276.7490625 397.95449219 275.810625 398.72148437 274.84375 399.51171875 C261.03813564 410.55976838 245.69098361 419.82034726 229.66210938 427.26806641 C228.32321736 427.89149214 226.98866442 428.52430646 225.65820312 429.16552734 C200.60951433 441.23711375 173.31387098 448.33873752 145.6875 451.1875 C144.73617188 451.29835938 143.78484375 451.40921875 142.8046875 451.5234375 C77.67833168 457.94923794 11.31690763 437.21373067 -39.3125 396.1875 C-39.86228516 395.74212891 -40.41207031 395.29675781 -40.97851562 394.83789062 C-54.6967542 383.61963094 -67.48928605 371.24121697 -78.3125 357.1875 C-79.07304688 356.25550781 -79.83359375 355.32351563 -80.6171875 354.36328125 C-91.68069756 340.56040368 -100.94245483 325.19720865 -108.39306641 309.16210938 C-109.01649214 307.82321736 -109.64930646 306.48866442 -110.29052734 305.15820312 C-122.34842009 280.13792884 -129.53200565 252.79845557 -132.3125 225.1875 C-132.42335937 224.12789062 -132.53421875 223.06828125 -132.6484375 221.9765625 C-136.88330874 173.79059517 -127.39403899 123.78984765 -104.3125 81.1875 C-103.92980957 80.46369141 -103.54711914 79.73988281 -103.15283203 78.99414062 C-97.58825564 68.47056448 -91.52948547 58.65244381 -84.3125 49.1875 C-83.87824707 48.6104834 -83.44399414 48.0334668 -82.99658203 47.43896484 C-76.27290682 38.52892831 -69.04439579 30.23265413 -61.3125 22.1875 C-60.79429688 21.64206543 -60.27609375 21.09663086 -59.7421875 20.53466797 C-53.79864808 14.30017326 -47.67873414 8.43416687 -40.9375 3.0625 C-40.37885254 2.61310059 -39.82020508 2.16370117 -39.24462891 1.70068359 C-27.54059335 -7.35298789 -12.31444702 -8.83578967 0 0 Z " fill="#FFA500" transform="translate(136.3125,56.8125)"/>
<path d="M0 0 C10.33786766 5.98675286 17.06834936 13.89059162 20.54296875 25.47265625 C21.542159 30.29109534 21.68891237 34.99432788 21.68341064 39.89602661 C21.68638177 40.7298146 21.68935289 41.5636026 21.69241405 42.42265689 C21.70106683 45.20902762 21.7026064 47.9953552 21.70410156 50.78173828 C21.7087322 52.78283275 21.71375719 54.78392635 21.71914673 56.78501892 C21.73225008 62.21711396 21.7387118 67.64919665 21.74315739 73.08130503 C21.74609179 76.47819464 21.75019732 79.87508091 21.75466156 83.27196884 C21.7683318 93.90904541 21.77800046 104.5461143 21.78186345 115.18319905 C21.78634148 127.44515737 21.80387957 139.70700407 21.83286405 151.96892846 C21.85451204 161.45790811 21.86456942 170.94685644 21.86590457 180.43586051 C21.86695047 186.09799169 21.87281241 191.76001787 21.89072418 197.42212296 C21.90725849 202.7524137 21.90933438 208.08252112 21.90058517 213.41282845 C21.89981764 215.36221751 21.9041199 217.31161665 21.91404343 219.26098061 C21.99229843 235.59994037 20.84154444 249.64709229 9.29296875 262.28515625 C0.66609188 270.37762482 -10.29756687 272.98107966 -21.8203125 272.78515625 C-33.25122698 271.80290796 -41.55363569 266.8497318 -49.20703125 258.59765625 C-59.49857251 246.21967496 -58.75366976 231.99672787 -58.73168945 216.70947266 C-58.73604166 214.70778718 -58.74122651 212.70610336 -58.74717712 210.704422 C-58.76052342 205.28907299 -58.76115068 199.87379396 -58.75861382 194.45843172 C-58.75754117 189.92830199 -58.762435 185.39818624 -58.76721925 180.86805952 C-58.77829928 170.17602635 -58.77876027 159.48402831 -58.77270508 148.79199219 C-58.76666561 137.7822748 -58.77897913 126.77268523 -58.80027515 115.76298964 C-58.8179195 106.29090839 -58.82388804 96.81886772 -58.8206374 87.34677064 C-58.81882896 81.69812121 -58.82141686 76.04956297 -58.83535194 70.4009285 C-58.84797184 65.0869887 -58.84594687 59.77324745 -58.83294106 54.45931053 C-58.8305848 52.51637262 -58.83327561 50.57342055 -58.84156418 48.63049889 C-58.90438735 32.75120399 -58.05046727 19.90447627 -46.89453125 7.66015625 C-33.68365553 -4.19575786 -16.3648028 -8.10339891 0 0 Z " fill="#FFA500" transform="translate(274.45703125,3.52734375)"/>
</svg>
