<?xml version="1.0" standalone="no"?>
<!DOCTYPE svg PUBLIC "-//W3C//DTD SVG 20010904//EN"
 "http://www.w3.org/TR/2001/REC-SVG-20010904/DTD/svg10.dtd">
<svg version="1.0" xmlns="http://www.w3.org/2000/svg"
 width="250.000000pt" height="250.000000pt" viewBox="0 0 250.000000 250.000000"
 preserveAspectRatio="xMidYMid meet">
<metadata>
Created by potrace 1.16, written by Peter Selinger 2001-2019
</metadata>
<g transform="translate(0.000000,250.000000) scale(0.100000,-0.100000)"
fill="#000000" stroke="none">
<path d="M0 1250 l0 -1250 1250 0 1250 0 0 1250 0 1250 -1250 0 -1250 0 0
-1250z m904 772 c105 -128 137 -173 144 -205 5 -23 7 -44 5 -46 -2 -3 -63 55
-137 127 -73 73 -138 132 -144 132 -6 0 -19 -35 -29 -77 -20 -89 -23 -253 -5
-346 l11 -58 -81 -164 -82 -163 63 -134 62 -134 81 -43 c44 -24 109 -63 144
-86 l64 -43 0 37 c0 21 -3 66 -6 100 -7 59 -9 64 -48 91 -37 24 -46 40 -79
126 -20 53 -36 99 -34 100 2 2 52 -27 112 -64 94 -59 110 -73 123 -107 8 -22
27 -157 42 -300 l28 -259 56 -54 56 -53 59 52 59 52 7 76 c20 227 47 441 60
481 14 42 23 50 126 114 61 37 112 66 114 64 2 -2 -14 -48 -36 -103 -34 -89
-43 -103 -79 -125 -22 -14 -40 -32 -41 -40 0 -8 -4 -52 -7 -98 -4 -45 -5 -82
-3 -82 3 0 27 16 55 35 28 19 91 56 140 83 l89 49 63 133 63 133 -81 161 -81
161 12 75 c6 41 11 116 11 165 0 84 -6 124 -31 219 l-11 39 -91 -89 c-51 -49
-116 -112 -145 -139 l-53 -50 6 40 c4 22 16 54 28 70 31 44 278 339 287 343
10 4 65 -145 90 -242 22 -87 27 -257 11 -358 l-10 -57 84 -170 84 -171 -80
-168 -80 -167 -116 -65 c-200 -112 -247 -162 -283 -300 -16 -62 -24 -75 -71
-118 -116 -105 -137 -122 -146 -122 -16 0 -44 36 -36 45 5 4 2 5 -5 1 -7 -5
-40 18 -85 59 -72 65 -74 69 -91 140 -31 130 -81 183 -295 307 l-103 60 -80
165 -79 165 81 167 81 166 -12 122 c-18 176 7 320 86 507 20 47 2 62 189 -162z"/>
</g>
</svg>
