<?xml version="1.0" encoding="UTF-8"?>
<svg xmlns="http://www.w3.org/2000/svg" xmlns:xlink="http://www.w3.org/1999/xlink" width="100px" height="100px" viewBox="0 0 100 99" version="1.1">
<g id="surface1">
<path style=" stroke:none;fill-rule:nonzero;fill:orange;fill-opacity:1;" d="M 45.632812 1.066406 C 39.800781 1.402344 31.929688 3.691406 26.753906 6.527344 C 23.902344 8.113281 19.222656 11.414062 17.179688 13.257812 C 11.0625 18.902344 5.492188 27.53125 3.296875 34.835938 C 1.621094 40.402344 1.515625 41.179688 1.386719 48.484375 C 1.253906 55.011719 1.28125 55.347656 1.960938 58.625 C 2.328125 60.472656 3.058594 63.226562 3.554688 64.734375 C 4.417969 67.359375 7.007812 72.871094 8.132812 74.484375 C 8.421875 74.898438 9.230469 76.148438 9.910156 77.214844 C 10.589844 78.28125 12.289062 80.410156 13.675781 81.945312 C 18.148438 86.859375 22.621094 90.1875 28.636719 93.097656 C 32.949219 95.203125 35.851562 96.167969 40.585938 97.128906 C 43.75 97.777344 44.585938 97.855469 49.949219 97.855469 C 56.25 97.855469 57.976562 97.648438 63.023438 96.269531 C 76.152344 92.683594 87.371094 83.558594 93.4375 71.496094 C 96.285156 65.878906 98.039062 60.160156 98.457031 55.039062 L 98.640625 53.007812 L 91.421875 53.164062 L 90.742188 56.726562 C 89.617188 62.289062 88.050781 66.503906 85.511719 70.585938 C 78.976562 81.164062 68.855469 88.027344 56.722656 90.109375 C 53.476562 90.65625 44.535156 90.5 41.578125 89.824219 C 36.140625 88.601562 31.511719 86.652344 27.144531 83.738281 C 17.023438 77.003906 11.113281 67.855469 8.890625 55.425781 C 8.523438 53.320312 8.523438 47.054688 8.917969 43.910156 C 10.460938 31.121094 18.90625 19.003906 30.386719 13.128906 C 37.289062 9.59375 42.679688 8.292969 50.601562 8.265625 C 53.816406 8.265625 55.125 8.398438 57.820312 8.941406 C 68.878906 11.179688 78.035156 17.210938 84.285156 26.308594 C 85.667969 28.363281 88.570312 33.953125 88.363281 34.160156 C 88.101562 34.445312 48.039062 52.777344 47.699219 52.777344 C 47.515625 52.777344 45.34375 51.789062 42.859375 50.566406 C 40.375 49.34375 38.128906 48.355469 37.867188 48.355469 C 37.605469 48.355469 37.160156 48.589844 36.871094 48.875 C 36.402344 49.34375 36.347656 49.734375 36.347656 52.4375 L 36.347656 55.503906 L 41.5 57.949219 C 47.359375 60.730469 47.933594 60.859375 50.367188 59.742188 C 55.359375 57.480469 63.859375 53.816406 64.148438 53.816406 C 64.253906 53.816406 64.332031 58.625 64.332031 64.476562 L 64.332031 75.160156 L 65.558594 75.679688 C 66.214844 75.964844 67.574219 76.328125 68.566406 76.484375 C 70.265625 76.796875 70.371094 76.773438 70.921875 76.226562 C 71.496094 75.652344 71.496094 75.601562 71.601562 63.019531 L 71.730469 50.359375 L 78.425781 47.109375 C 82.113281 45.339844 87.472656 42.765625 90.351562 41.414062 C 96.105469 38.710938 97.019531 38.0625 97.019531 36.734375 C 97.019531 35.046875 93.671875 27.140625 91.371094 23.398438 C 88.074219 18.015625 81.378906 11.464844 75.628906 8.035156 C 72.882812 6.371094 68.175781 4.132812 65.636719 3.300781 C 62.8125 2.367188 57.6875 1.273438 55.570312 1.144531 C 52.09375 0.9375 48.507812 0.910156 45.632812 1.066406 Z M 59.074219 4.316406 C 63.363281 5.171875 66.371094 6.1875 70.214844 8.058594 C 77.011719 11.386719 81.824219 15.339844 87.1875 21.96875 C 88.832031 24.023438 91.996094 29.976562 93.488281 33.902344 C 94.429688 36.34375 94.457031 36.476562 93.984375 36.734375 C 93.539062 36.996094 85.015625 41.078125 72.90625 46.847656 L 69.0625 48.695312 L 68.984375 61.09375 C 68.933594 67.933594 68.828125 73.601562 68.75 73.679688 C 68.671875 73.757812 68.226562 73.757812 67.78125 73.679688 L 66.972656 73.523438 L 66.894531 62.8125 C 66.816406 53.085938 66.761719 52.046875 66.34375 51.398438 C 66.054688 50.957031 65.664062 50.695312 65.273438 50.695312 C 64.933594 50.695312 60.851562 52.332031 56.25 54.363281 L 47.855469 58 L 45.710938 57.039062 C 44.507812 56.519531 42.519531 55.558594 41.265625 54.933594 L 38.964844 53.816406 L 38.964844 52.777344 C 38.964844 52.203125 39.042969 51.734375 39.121094 51.734375 C 39.199219 51.734375 40.976562 52.566406 43.097656 53.582031 C 45.214844 54.59375 47.304688 55.425781 47.726562 55.425781 C 48.640625 55.425781 89.75 36.65625 90.691406 35.800781 C 91.632812 34.941406 91.421875 33.953125 89.511719 30.132812 C 85.878906 22.980469 80.726562 17.082031 74.527344 13.023438 C 67.101562 8.1875 59.152344 5.71875 50.914062 5.695312 C 45.710938 5.695312 41.894531 6.136719 37.761719 7.28125 C 35.566406 7.878906 30.882812 9.800781 28.503906 11.101562 C 18.539062 16.5625 10.667969 26.441406 7.609375 37.253906 C 6.328125 41.832031 6.144531 43.363281 6.144531 49.785156 C 6.144531 55.714844 6.144531 55.792969 7.035156 59.273438 C 9.988281 70.972656 15.898438 79.398438 25.757812 85.949219 C 30.832031 89.304688 36.347656 91.511719 42.3125 92.578125 C 45.003906 93.074219 46.050781 93.125 51.253906 92.996094 C 57.503906 92.863281 58.394531 92.734375 63.546875 91.121094 C 70.816406 88.835938 78.582031 83.660156 83.5 77.785156 C 88.753906 71.519531 91.738281 65.28125 93.359375 57.144531 L 93.644531 55.636719 L 94.691406 55.636719 C 95.632812 55.636719 95.710938 55.6875 95.710938 56.335938 C 95.710938 57.507812 94.273438 62.835938 93.226562 65.644531 C 89.09375 76.667969 80.726562 85.742188 70.03125 90.863281 C 66.421875 92.578125 62.472656 93.90625 58.523438 94.683594 C 56.015625 95.179688 54.757812 95.257812 49.949219 95.257812 C 44.796875 95.257812 44.039062 95.203125 40.925781 94.554688 C 39.070312 94.136719 36.480469 93.460938 35.171875 93.046875 C 32.191406 92.058594 25.785156 88.964844 24.058594 87.691406 C 13.257812 79.65625 6.980469 70.21875 4.550781 58.261719 C 3.949219 55.347656 3.871094 54.414062 3.894531 49.550781 C 3.921875 43.390625 4.238281 40.972656 5.621094 36.164062 C 7.6875 29.066406 12.027344 22.046875 18.070312 16.09375 C 22.304688 11.90625 29.15625 7.746094 34.910156 5.875 C 37.867188 4.941406 42.417969 3.898438 44.71875 3.664062 C 48.378906 3.277344 55.492188 3.613281 59.074219 4.316406 Z M 59.074219 4.316406 "/>
<path style=" stroke:none;fill-rule:nonzero;fill:grey;fill-opacity:1;" d="M 67.335938 28.15625 C 65.898438 28.78125 64.070312 29.585938 63.257812 29.976562 C 62.449219 30.367188 61.714844 30.675781 61.585938 30.675781 C 61.480469 30.675781 60.667969 31.015625 59.78125 31.457031 C 58.917969 31.875 56.957031 32.730469 55.4375 33.355469 C 53.921875 34.003906 51.59375 35.019531 50.234375 35.589844 L 47.777344 36.683594 L 46.445312 36.109375 C 43.199219 34.757812 30.570312 29.273438 29.15625 28.625 C 25.914062 27.117188 24.660156 26.960938 24.164062 28 C 23.847656 28.675781 23.71875 49.1875 23.929688 62.890625 C 24.164062 76.773438 23.796875 75.496094 27.640625 76.40625 C 28.949219 76.695312 30.257812 76.953125 30.570312 76.953125 L 31.121094 76.953125 L 31.121094 57.324219 C 31.121094 41.179688 31.171875 37.695312 31.460938 37.695312 C 31.800781 37.695312 34.546875 38.867188 39.488281 41.078125 C 43.800781 43.027344 47.332031 44.457031 47.75 44.457031 C 47.988281 44.457031 49.738281 43.753906 51.648438 42.898438 C 53.554688 42.039062 55.179688 41.335938 55.28125 41.335938 C 55.359375 41.335938 56.171875 41 57.085938 40.582031 C 57.976562 40.167969 60.957031 38.867188 63.675781 37.695312 C 66.421875 36.527344 69.300781 35.253906 70.082031 34.863281 L 71.523438 34.160156 L 71.601562 31.121094 C 71.652344 28.363281 71.625 28.050781 71.128906 27.558594 C 70.84375 27.273438 70.449219 27.039062 70.292969 27.039062 C 70.109375 27.039062 68.777344 27.558594 67.335938 28.15625 Z M 28.765625 31.199219 C 29.835938 31.640625 31.851562 32.496094 33.210938 33.121094 C 37.605469 35.148438 42.257812 37.175781 42.46875 37.175781 C 42.574219 37.175781 43.539062 37.59375 44.613281 38.113281 C 47.644531 39.542969 47.828125 39.542969 51.699219 37.828125 C 61.664062 33.433594 68.621094 30.417969 68.828125 30.417969 C 68.960938 30.417969 69.039062 30.910156 68.984375 31.507812 L 68.90625 32.574219 L 65.113281 34.238281 C 63.023438 35.175781 60.144531 36.421875 58.707031 37.046875 C 57.269531 37.671875 54.210938 38.996094 51.933594 39.984375 C 47.175781 42.066406 47.828125 42.066406 43.621094 40.0625 C 42.363281 39.492188 40.585938 38.710938 39.695312 38.371094 C 38.78125 38.035156 36.480469 37.046875 34.597656 36.164062 C 30.359375 34.214844 29.835938 34.082031 29.15625 34.835938 C 28.660156 35.410156 28.636719 35.902344 28.554688 54.648438 L 28.476562 73.886719 L 27.667969 73.730469 C 27.222656 73.652344 26.777344 73.523438 26.699219 73.445312 C 26.464844 73.210938 26.332031 30.417969 26.570312 30.417969 C 26.699219 30.417969 27.695312 30.78125 28.765625 31.199219 Z M 28.765625 31.199219 "/>
</g>
</svg>
