<?xml version="1.0" encoding="UTF-8"?>
<svg xmlns="http://www.w3.org/2000/svg" xmlns:xlink="http://www.w3.org/1999/xlink" width="30px" height="30px" viewBox="0 0 30 30" version="1.1">
<g id="surface1">
<path style=" stroke:none;fill-rule:nonzero;fill:rgb(50.196081%,50.196081%,50.196081%);fill-opacity:1;" d="M 13.691406 0.46875 C 11.941406 0.570312 9.578125 1.257812 8.027344 2.109375 C 7.171875 2.582031 5.765625 3.574219 5.152344 4.128906 C 3.320312 5.820312 1.648438 8.410156 0.988281 10.601562 C 0.488281 12.269531 0.453125 12.503906 0.417969 14.695312 C 0.375 16.652344 0.382812 16.753906 0.589844 17.738281 C 0.699219 18.292969 0.917969 19.117188 1.066406 19.570312 C 1.324219 20.359375 2.101562 22.011719 2.441406 22.496094 C 2.527344 22.621094 2.769531 22.996094 2.972656 23.316406 C 3.175781 23.632812 3.6875 24.273438 4.101562 24.734375 C 5.445312 26.207031 6.785156 27.207031 8.589844 28.078125 C 9.886719 28.710938 10.753906 29 12.175781 29.289062 C 13.125 29.484375 13.375 29.507812 14.984375 29.507812 C 16.875 29.507812 17.394531 29.445312 18.90625 29.03125 C 22.847656 27.957031 26.210938 25.21875 28.03125 21.597656 C 28.886719 19.914062 29.410156 18.199219 29.535156 16.660156 L 29.59375 16.050781 L 27.425781 16.097656 L 27.222656 17.167969 C 26.886719 18.835938 26.414062 20.101562 25.652344 21.324219 C 23.691406 24.5 20.65625 26.558594 17.015625 27.183594 C 16.042969 27.347656 13.359375 27.300781 12.472656 27.097656 C 10.84375 26.730469 9.453125 26.144531 8.144531 25.269531 C 5.105469 23.25 3.332031 20.507812 2.667969 16.777344 C 2.558594 16.144531 2.558594 14.265625 2.675781 13.324219 C 3.136719 9.488281 5.671875 5.851562 9.117188 4.089844 C 11.1875 3.027344 12.804688 2.636719 15.179688 2.628906 C 16.144531 2.628906 16.539062 2.667969 17.347656 2.832031 C 20.664062 3.503906 23.410156 5.3125 25.285156 8.042969 C 25.699219 8.660156 26.570312 10.335938 26.507812 10.398438 C 26.429688 10.484375 14.410156 15.984375 14.308594 15.984375 C 14.253906 15.984375 13.601562 15.6875 12.859375 15.320312 C 12.113281 14.953125 11.4375 14.65625 11.359375 14.65625 C 11.28125 14.65625 11.148438 14.726562 11.0625 14.8125 C 10.921875 14.953125 10.902344 15.070312 10.902344 15.882812 L 10.902344 16.800781 L 12.449219 17.535156 C 14.207031 18.371094 14.378906 18.40625 15.109375 18.074219 C 16.609375 17.394531 19.15625 16.292969 19.246094 16.292969 C 19.277344 16.292969 19.300781 17.738281 19.300781 19.492188 L 19.300781 22.699219 L 19.667969 22.855469 C 19.863281 22.941406 20.273438 23.046875 20.570312 23.09375 C 21.078125 23.1875 21.113281 23.183594 21.277344 23.019531 C 21.449219 22.847656 21.449219 22.832031 21.480469 19.054688 L 21.519531 15.257812 L 23.527344 14.28125 C 24.632812 13.753906 26.242188 12.980469 27.105469 12.574219 C 28.832031 11.761719 29.105469 11.570312 29.105469 11.171875 C 29.105469 10.664062 28.101562 8.292969 27.410156 7.167969 C 26.421875 5.554688 24.414062 3.589844 22.6875 2.558594 C 21.863281 2.0625 20.453125 1.390625 19.691406 1.140625 C 18.84375 0.859375 17.304688 0.53125 16.671875 0.492188 C 15.628906 0.429688 14.550781 0.421875 13.691406 0.46875 Z M 17.722656 1.445312 C 19.007812 1.703125 19.910156 2.007812 21.066406 2.566406 C 23.105469 3.566406 24.546875 4.753906 26.15625 6.742188 C 26.648438 7.355469 27.597656 9.144531 28.046875 10.320312 C 28.328125 11.054688 28.335938 11.09375 28.195312 11.171875 C 28.0625 11.25 25.503906 12.472656 21.871094 14.203125 L 20.71875 14.757812 L 20.695312 18.476562 C 20.679688 20.53125 20.648438 22.230469 20.625 22.253906 C 20.601562 22.277344 20.46875 22.277344 20.335938 22.253906 L 20.089844 22.207031 L 20.066406 18.992188 C 20.042969 16.074219 20.027344 15.765625 19.902344 15.570312 C 19.816406 15.4375 19.699219 15.359375 19.582031 15.359375 C 19.480469 15.359375 18.253906 15.847656 16.875 16.457031 L 14.355469 17.550781 L 13.714844 17.261719 C 13.351562 17.105469 12.753906 16.816406 12.378906 16.628906 L 11.691406 16.292969 L 11.691406 15.984375 C 11.691406 15.8125 11.714844 15.671875 11.738281 15.671875 C 11.761719 15.671875 12.292969 15.917969 12.929688 16.222656 C 13.566406 16.527344 14.191406 16.777344 14.316406 16.777344 C 14.59375 16.777344 26.925781 11.148438 27.207031 10.890625 C 27.488281 10.632812 27.425781 10.335938 26.855469 9.191406 C 25.761719 7.042969 24.21875 5.273438 22.359375 4.058594 C 20.128906 2.605469 17.746094 1.867188 15.273438 1.859375 C 13.714844 1.859375 12.566406 1.992188 11.328125 2.335938 C 10.667969 2.511719 9.265625 3.089844 8.550781 3.480469 C 5.5625 5.117188 3.199219 8.082031 2.28125 11.324219 C 1.898438 12.699219 1.84375 13.160156 1.84375 15.085938 C 1.84375 16.863281 1.84375 16.886719 2.109375 17.933594 C 2.996094 21.441406 4.769531 23.96875 7.726562 25.933594 C 9.25 26.941406 10.902344 27.605469 12.695312 27.921875 C 13.5 28.074219 13.816406 28.085938 15.375 28.050781 C 17.25 28.007812 17.519531 27.96875 19.0625 27.488281 C 21.246094 26.800781 23.574219 25.246094 25.050781 23.484375 C 26.625 21.605469 27.519531 19.734375 28.007812 17.292969 L 28.09375 16.839844 L 28.40625 16.839844 C 28.691406 16.839844 28.714844 16.855469 28.714844 17.050781 C 28.714844 17.402344 28.28125 19 27.96875 19.84375 C 26.726562 23.152344 24.21875 25.871094 21.007812 27.410156 C 19.925781 27.921875 18.742188 28.320312 17.558594 28.554688 C 16.804688 28.703125 16.425781 28.726562 14.984375 28.726562 C 13.4375 28.726562 13.210938 28.710938 12.277344 28.515625 C 11.722656 28.390625 10.945312 28.1875 10.550781 28.0625 C 9.65625 27.769531 7.734375 26.839844 7.21875 26.457031 C 3.976562 24.046875 2.09375 21.214844 1.363281 17.628906 C 1.183594 16.753906 1.160156 16.472656 1.167969 15.015625 C 1.175781 13.167969 1.269531 12.441406 1.6875 11 C 2.304688 8.871094 3.609375 6.765625 5.421875 4.976562 C 6.691406 3.722656 8.746094 2.472656 10.472656 1.914062 C 11.359375 1.632812 12.726562 1.320312 13.414062 1.25 C 14.511719 1.132812 16.648438 1.234375 17.722656 1.445312 Z M 17.722656 1.445312 "/>
<path style=" stroke:none;fill-rule:nonzero;fill:rgb(100%,64.705884%,0%);fill-opacity:1;" d="M 20.199219 8.597656 C 19.769531 8.785156 19.222656 9.027344 18.976562 9.144531 C 18.734375 9.261719 18.515625 9.351562 18.476562 9.351562 C 18.445312 9.351562 18.199219 9.453125 17.933594 9.585938 C 17.675781 9.710938 17.085938 9.96875 16.632812 10.15625 C 16.175781 10.351562 15.476562 10.65625 15.070312 10.828125 L 14.332031 11.15625 L 13.933594 10.984375 C 12.960938 10.578125 9.171875 8.933594 8.746094 8.738281 C 7.773438 8.285156 7.398438 8.238281 7.25 8.550781 C 7.152344 8.753906 7.117188 14.90625 7.179688 19.015625 C 7.25 23.183594 7.140625 22.800781 8.292969 23.070312 C 8.683594 23.160156 9.078125 23.234375 9.171875 23.234375 L 9.335938 23.234375 L 9.335938 17.347656 C 9.335938 12.503906 9.351562 11.457031 9.4375 11.457031 C 9.539062 11.457031 10.363281 11.808594 11.847656 12.472656 C 13.140625 13.058594 14.199219 13.488281 14.324219 13.488281 C 14.394531 13.488281 14.921875 13.277344 15.496094 13.019531 C 16.066406 12.761719 16.554688 12.550781 16.585938 12.550781 C 16.609375 12.550781 16.851562 12.449219 17.125 12.324219 C 17.394531 12.199219 18.285156 11.808594 19.101562 11.457031 C 19.925781 11.109375 20.789062 10.726562 21.023438 10.609375 L 21.457031 10.398438 L 21.480469 9.488281 C 21.496094 8.660156 21.488281 8.566406 21.339844 8.417969 C 21.253906 8.332031 21.136719 8.261719 21.089844 8.261719 C 21.03125 8.261719 20.632812 8.417969 20.199219 8.597656 Z M 8.628906 9.511719 C 8.949219 9.640625 9.554688 9.898438 9.964844 10.085938 C 11.28125 10.695312 12.675781 11.300781 12.742188 11.300781 C 12.773438 11.300781 13.0625 11.429688 13.382812 11.582031 C 14.292969 12.011719 14.347656 12.011719 15.511719 11.5 C 18.5 10.179688 20.585938 9.277344 20.648438 9.277344 C 20.6875 9.277344 20.710938 9.421875 20.695312 9.601562 L 20.671875 9.921875 L 19.535156 10.421875 C 18.90625 10.703125 18.042969 11.078125 17.613281 11.265625 C 17.179688 11.453125 16.261719 11.847656 15.582031 12.144531 C 14.152344 12.769531 14.347656 12.769531 13.085938 12.167969 C 12.707031 11.996094 12.175781 11.761719 11.910156 11.660156 C 11.632812 11.558594 10.945312 11.265625 10.378906 11 C 9.109375 10.414062 8.949219 10.375 8.746094 10.601562 C 8.597656 10.773438 8.589844 10.921875 8.566406 16.542969 L 8.542969 22.316406 L 8.300781 22.269531 C 8.167969 22.246094 8.035156 22.207031 8.011719 22.183594 C 7.941406 22.113281 7.898438 9.277344 7.972656 9.277344 C 8.011719 9.277344 8.308594 9.382812 8.628906 9.511719 Z M 8.628906 9.511719 "/>
</g>
</svg>
